<svg xmlns="http://www.w3.org/2000/svg" viewBox="0 0 100.99 101.01"><defs><style>.cls-1{fill:#67b2e8;}.cls-1,.cls-2,.cls-4{fill-rule:evenodd;}.cls-2,.cls-3{fill:#0071ce;}.cls-4,.cls-5{fill:#002f87;}</style></defs><title>Asset 3</title><g id="Layer_2" data-name="Layer 2"><g id="Layer_1-2" data-name="Layer 1"><path class="cls-1" d="M28.91,4.83c.3.41-.84,1.25-1.08,1.49a14.32,14.32,0,0,1-4.66,3.22c-.84.4-1.7.8-2.5,1.25-1.71,1-3.78,3.24-4.49,2.94-.14-.44.22-.77.56-1.08a25.62,25.62,0,0,1,3.34-2.6C22.55,8.14,28.39,4.32,28.91,4.83Z"/><path class="cls-1" d="M5.58,27.61c.27.23.07.95,0,1.45s-.34,1.1-.5,1.6c-.34,1-1.18,2.71-1.66,2.62C2.77,32.85,4.72,27.48,5.58,27.61Z"/><path class="cls-1" d="M43.11,6.59c.31.88-2,2.3-3.16,3.16s-3.5,2.78-4.12,1.84c-.72-1.36,1.27-2.66-.59-4.2C34,6.35,31.14,7.82,31,9.54c-.05.93.71,1.42.59,2.36s-1.73,1.73-2.58,2.21a15,15,0,0,0-4.42,3.39c-.81.93-1.88,2.87-2.65,2.5-.78-.61.35-2.18,1.05-3.77.29-.65.88-1.67.35-1.95-.69-.28-1.11.62-1.47,1.15a14.24,14.24,0,0,0-2.21,6.33c-.09,1.17.06,2.44.81,2.65,1.3.36,2.48-1,3.09-1.77s1.47-2.49,2.87-1.84c1,.45.58,2.66.44,3.53-.54,3.39-.5,5.83,1.32,7.95.95,1.1,2.33,1.78,3.24,2.72A12.63,12.63,0,0,1,34,38.76c.37.89.71,2.58,0,3.31-1,1-4.46,1-6.18,1-3.29.15-6.53-.36-7.87-2.21a8.27,8.27,0,0,1-1.18-5.08c.05-1.94.52-4.11.29-6-.29-2.45-3.31-2.85-3.68-5.08a3.82,3.82,0,0,1,.44-2.28c.66-1.23,1.69-1.72.88-3.39-.72-1.49-2.52-.6-3.39.44a3.92,3.92,0,0,0-1,2.8c.11.87,1.15,1.5,1.18,2.13s-.92,1.85-1.25,2.28a8.61,8.61,0,0,0-1.84,4c-.1.44-.18,1.41-.74,1.55-.92.22-1.57-1.11-1.84-1.4a3.71,3.71,0,0,1-.52-4.64c.62-1.17,1.69-2.11,1.71-3a3,3,0,0,1,.72-2.72,30.41,30.41,0,0,1,2.73-1.92c1.39-1,2.8-2.2,4.27-3.24a36.15,36.15,0,0,1,7.14-4.2c2-.8,4-1.44,5.3-2.94C30.28,7,30.78,5.66,32.29,5c2.22-1,4.67-.26,6.84.37C40.47,5.73,42.58,5.48,43.11,6.59Z"/><path class="cls-1" d="M57.25,15.57c-1.68-.5-.9-4.25-1.1-6.4C56,7.71,55,6.84,53.79,7.85s-1.26,4.08-1.25,6.7c0,2.84,0,5.39-.66,7.36-.31.89-.91,2-1.32,2.87-.65,1.4-1.49,3.39-3.46,3.24s-2.53-2.76-3.53-4a6.52,6.52,0,0,0-1.32-1.32c-1.6-1.14-3.6-1-3.39-3.83.28-3.73,2.88-7.27,5.74-9.35a76.35,76.35,0,0,1,7-4.34c.31-.18.7-.41,1.18-.74.1-.07,1-.57.88-1-.13-.59-1.54-.33-1.91-.22-1.8.54-3.2,1.66-5.37,1.77a23.14,23.14,0,0,1-5.23-.59c-1.65-.32-4.33-.7-4.27-1.47.09-.61,2.1-.76,3.3-.84,2.51-.16,5.29.28,7.52-.56.56-.21,1.09-.81,1.62-1,1.69-.69,6-.6,6.18,0S53.54.81,53.73,2s1.86,1.36,3.33.92c2.25-.68,3,.09,3.23,2.42a11.44,11.44,0,0,0,2.22,5.1c1,1.15,5.29,4.52,5.83,4s-4.68-4.52-4.72-7.21c0-.88.12-1.56.69-1.79C65.67,4.9,67,6.1,67.55,7s.6,2.13,1.18,3.09c.84,1.41,2.81,2.4,4,3.75a6.61,6.61,0,0,1,2,4.49c-.18,1.64-2.65-.16-3.75-.74-1.48-.77-3.51-.73-4.71-1.4-.69-.39-1.48-1.74-2.73-1.88C60.94,14.07,58.37,15.91,57.25,15.57Z"/><path class="cls-2" d="M89.85,23.82c-.31.68-1.58.23-2,.64-1.25,1.35,1,3.21,1.44,4.29S89.44,31,90,32c1.43,2.67,3.26,1.38,4.53,1.85.92.47,1.17,2,1.25,3.53s.36,4.2-.52,4.27c-.85.23-1.73-2.33-2.35-3.33-.72-1.17-1.75-3.37-3.61-3.07-1.61.26-2.66,2.21-3.68,3.75s-2.4,4.29-4.86,3.75A3.91,3.91,0,0,1,78,38.39a12.5,12.5,0,0,1,1.69-4c1.93-3.47,5.09-6.81,6.4-10.6a8,8,0,0,0,.37-2.72c0-.68-.54-2.66-1.69-2.58s-.8,1.58-1,2.72a17.1,17.1,0,0,1-3.9,7.36,28.9,28.9,0,0,1-3.68,3.83c-1.28,1.1-2.75,2.54-4.93,2.36-1.53-2.25.77-3.93,1.33-6,.67-2.46-.42-5.33-2.8-5.52a4.4,4.4,0,0,0-4.56,4.12c-.16,1.65.4,4.05-.59,4.78a2.73,2.73,0,0,1-2.43-.15c-1.87-1.05-2.76-3.74-3.53-6-.43-1.27-.83-2.17-1.25-3.53-.36-1.18-.8-3-.29-4,.75-1.62,3.68-1.65,6-1.33C67.54,17.75,69.9,20,73.29,22c1.14.67,5.09,3.21,6.33,1.25.73-1.15,0-3.44-.37-4.64A29.76,29.76,0,0,0,73.07,8,20,20,0,0,0,62.32,2c-.63-.14-1.57-.3-2.41-.48C58.8,1.24,57.86,1,58.05.71s1.53-.06,2.5.09a49,49,0,0,1,9.72,3,13.43,13.43,0,0,1,3.31,1.69c.45.42.35.95.74,1.33.89.86,2.53.79,2.87,1.69.15.41-.06,1,0,1.47.5,3.57,4.66,4.41,7.21,6a12.21,12.21,0,0,1,3.24,3.39C88.58,20.71,90.11,23.19,89.85,23.82Z"/><path class="cls-3" d="M6.08,69.3c.48-.37-.12-2.76-.67-3s-1.64.27-1.66,1C3.72,68.26,5.46,69.77,6.08,69.3Z"/><path class="cls-3" d="M44.84,58.56c1.75-2.07,3.49-2,3.92-3.07s-1.56-1.43-2.47-3.43c-1.32-2.92-.27-4.9,1.4-5.73a5.66,5.66,0,0,1,6.66,2.06c1.15,1.55,1.46,4.24.5,5.74-.24.37-1.12,2.26.4,6.76,1.8,5.32,3.44,1.66,3.66.64A42.5,42.5,0,0,0,60,49.21c-.46-6.08-2.25-10-3.75-15-.67-2.22-1.5-5.58-4-5.45s-2.81,3.83-5.37,3.83c-3.14,0-3.77-4.51-6.4-5.3a2.16,2.16,0,0,0-1-.07c-2.46.38-.86,4.61-.44,5.89,1.14,3.46,2.6,5.67,3.53,8.91a14.1,14.1,0,0,1,.74,5.52c-.24,2.23-1.83,4.48-3.09,6.18-1.09,1.47-3.4,5.39-4.77,7.74-1.6,2.75.16,2.66,1,2.35C39.62,62.6,42.58,61.23,44.84,58.56Z"/><path class="cls-3" d="M24.85,75.17c-.91,1.12.59,4.05,1.43,6,1.34,3.14,2.57,4.45,4.26,2.91,6.22-5.66,5.34-7.17,7.24-9.54C39,73,42.07,72.73,43.71,71.08s3.43-6.21,3-7.46c-.31-.84-1.35-.19-1.4-.16-6.19,4.61-9.77,4.34-14.75,6.1-1,.34-2,.64-2.91,1.05-.71.31-1.69.73-1.58,1.88A2.82,2.82,0,0,1,24.85,75.17Z"/><path class="cls-3" d="M17.32,65.7c.69-.69,2.07.16,3,1.19a5.14,5.14,0,0,0,2.23,1.77c1.15.42,3.8-.75,5.37-1.41,2.54-1.07,3.13-3.13,4-5.71,1.42-4.22,3.34-9.93,3.6-10.71.37-1.13.36-2.61-.37-3-1.25-.7-3.35.32-4.27.66s-1.66.64-2.58,1c-1.14.48-4.49,1.29-4.49,2.65,0,.89,2.57.57,2.72,1.72,0,.84-2.59.87-3.24.86-2-.05-1.64-2.69-3-2.8a3.63,3.63,0,0,0-1.55.44,2.14,2.14,0,0,0-1.28,2c.12.84,2.15.65,2.11,1.84,0,.77-2.44.85-3.25.69-2-.4-1-4.16-1.18-6.55-.11-1.26-.78-1.63-1.32-2.5C12.65,45.94,12.58,43.61,12,41a14,14,0,0,0-1.69-4,13.46,13.46,0,0,0-2.43-3.31,4.33,4.33,0,0,0-1.25-.74c-2-.38-3.08,2.61-2.65,4.56A20.09,20.09,0,0,0,5.58,41a20.37,20.37,0,0,1,1.55,3.61c.47,1.95-.13,4.69,0,6.77s3.25,2.11,3.17,3.24-3.67,1-4.44.64-.84-1.18-.94-2.4c-.11-1.47,0-3.26-.15-5-.14-1.25-.59-3.55-1.69-3.46-.68.05-1,1.5-1.18,2.06s-.18.83-.26,1.21S1.49,49,1.09,48.91.79,47.9.8,47.4c0-1.85,1.31-3.58,1.61-5.48.18-1.14,0-2.24-.81-2.13-.54.08-.73,1.52-.88,2.35A49.3,49.3,0,0,0,.14,54.31h0c0,.47.09,1,.15,1.44A36,36,0,0,0,1,60.25a12.25,12.25,0,0,0,.74,2.47c.36.69.89,2.1,2.12,1a20.28,20.28,0,0,1,2.51-2.15,10.32,10.32,0,0,1,2-.59c1.16-.33.67-2.13,1.49-3.26a2.6,2.6,0,0,1,3.72-.65,2.89,2.89,0,0,1,.64,3.55c-1.18,1.9-2.91,1.58-3.31,1.87s-.12,1.23-.12,1.23.67,2.48.93,3.21c1.65,4.78,5.23,7.27,7.86,9.11.9.63,2,.61,1.64-1A17.07,17.07,0,0,0,20,71.52a33.08,33.08,0,0,0-2-3.39C17.83,67.81,16.63,66.39,17.32,65.7Z"/><path class="cls-4" d="M86.54,15.06c-.39.33-1.83-.92-2.62-1.51A22.15,22.15,0,0,1,80.63,11c-.16-.18-.46-.57-.2-.92.15-.2.85.2,1.11.36a18.28,18.28,0,0,1,2.72,2.22C85.07,13.38,86.87,14.5,86.54,15.06Z"/><path class="cls-4" d="M97.5,32.72c-1.49.48-2.23-2.53-3.53-3.9a6.62,6.62,0,0,0-2.8-1.47c-.92-.3-2.59-.94-1.91-2.06.78-.6,2.31,1.09,2.8.66.66-.46-.71-2.33-1.32-3.39s-2-3.4-1.4-3.75,3.69,3.94,5.15,6.48A42.58,42.58,0,0,1,96.55,29C97,30.17,98,32.51,97.5,32.72Z"/><path class="cls-4" d="M96.22,55.44c-1.08-.29-4-2.61-4.8-.82-.52,1.18,3.94,4,5.29,4.29,2.07.51,3.3-2.56,4.06-1.46.34.49-.93,4.6-1.35,4.92-.69.53-2.11.08-3.46.22-3.49.37-3.62,4.36-4.34,7.73-.34,1.61-.73,3.27-1.62,4-.34.3-2.41.82-2.36,1.55.09,1.2,3.14.13,3.53-.15,1.79-1.26,2.44-5.46,3.9-7.73.43-.67,1.42-1.76,2.36-1.18,1.14.72-.62,4.09-1,4.86A42.84,42.84,0,0,1,91.69,80c-1.2,1.66-3,4.25-4.78,3.24-2-1.39-4.18-4.91-3.17-7.73.49-1.35,2-1.76,2-3.39,0-1.23-1-2.31-1.62-3.09S82.67,67.23,82,66.36c-1.44-2-2.93-3.42-4.27-5.08a17.6,17.6,0,0,1-3.31-6.11c-.91-2.9-2.25-8-.59-11.11A2.83,2.83,0,0,1,76,42.36c1.33,0,2.06,1.59,2.65,2.36.76,1,1.57,2.24,2.8,2.21,1.55,0,3.12-2.46,4-3.39s2.63-3.16,4.56-2.8a2.87,2.87,0,0,1,1.84,2.94c-.21,2.57-4.42,3.3-6.33,4.71-1.21.89-2.84,2.81-2.5,5.08.48,3.21,3.31,4.82,4.42,7.29a3.59,3.59,0,0,1,.29,2.36c-.15.54-.72.91-1.25,1.4-.24.22-1.17,1-1,1.62.33,1,2.23-.06,2.65-.29a3.34,3.34,0,0,0,2-2.36c.23-1.7-.83-3.54-1.55-5.15-.56-1.25-1.74-3.87-.81-5.45.59-1,2.21-1.4,3.75-1.69S95,51,96.18,50.39c1.58-.85,2.27-3.12,2.65-5.15.32-1.71.37-4.61,1.1-4.64s.81,2.71,1,4.2C101.54,51.33,98.88,56.16,96.22,55.44Z"/><path class="cls-4" d="M79,91.75c.31.9-1.77,1.65-2.87,2.28a25.66,25.66,0,0,1-4.27,2.21c-2.48.78-4.21-.29-6.92.52-1.07.32-3.83,1.16-4.2-.15s1.68-2.87,2.13-3.61c1.73-2.83.69-6.56.15-10.16a18.64,18.64,0,0,1,.3-6.84c.44-1.86.92-4.15,1.54-6.18s1.79-6.34,4.71-5.74a11.35,11.35,0,0,1,4.19,2.58c.76.67,2,1.9,1.91,3.09-.1,1-1.22,1.46-2,1.77s-2,.46-2.28,1.47a3.68,3.68,0,0,0,1,2.87,23.75,23.75,0,0,0,3.68,4c.39.34,1.51,1.55,2.43,1.18s.2-2.28,0-2.8c-.32-.81-1.08-1.78-1-2.65a1.47,1.47,0,0,1,1.32-1.32c1.09-.07,1.95,1,2.43,2a19.21,19.21,0,0,1,1.69,7c.13,1.31.41,3.59-.22,4.34s-3.81,1.33-5.23,1.25c-2.34-.12-3.65-2.23-5.59-2.95-.93-.34-1.91-.23-2.06.37-.27,1.09,1.68,2.25,2.35,2.8a11.48,11.48,0,0,0,3.09,2.06C77.15,91.73,78.84,90.93,79,91.75Z"/><path class="cls-5" d="M12.94,77.24c-4.16-2-4.51-3.5-6.41-5.45-.76-.78-1.26.1-.89,1a25.46,25.46,0,0,0,1.66,3.42,62.6,62.6,0,0,0,4.58,6.21c1.67,2.08,2.49,1,2.73.27a14.31,14.31,0,0,0,.71-2.82C15.35,78.68,14.63,78,12.94,77.24Z"/><path class="cls-5" d="M58.72,96.83c-.08-.64.35-1.22.48-1.83.63-2.95-.14-7.71-.33-9.07-.43-3-1.37-5.21-1.81-7.88a41.64,41.64,0,0,1-.41-6.77c0-2.91-2-1.24-3,.31-3.47,5.42-6.68,5.66-8.07,8-3.27,5.42-8.38,8.59-11,10.07-1.49.84-6.11,3.36-9.16,1.71-2.84-1.53-3.61-6.93-3.57-8.78,0-2.18-1.94-1-2.56,0-.32.48-.86,1.12-1.27,1.86-1.52,2.74.94,4.74,1.69,5.62a21.29,21.29,0,0,0,8.5,5.69c1.78.82,7.28,2.48,10.95-1.75C40.81,92,40.89,91,41.8,90c1.87-2,3.81-1.15,5.06-2.33.46-.44.19-1.92.52-2.83a2.77,2.77,0,0,1,3.56-1.51c1.65.7,1.74,2.81,1.15,4-1.25,2.49-3.06,1.22-3.8,3.12-.18,1.1-.6,5.38,1.13,5.62.92.13,4.21-1.38,4.68-.43C54.75,97,49,99.44,47.69,99c-1.55-.53-1.84-3.57-2.59-3.79-.37-.11-1,.56-1.88,1.67-1.9,2.48,2.24,3.74,3.14,3.89a43.66,43.66,0,0,0,7.14.2c1.69-.08,6.3-.37,6.4-2C60,97.86,58.84,97.88,58.72,96.83Z"/></g></g></svg>